<?xml version="1.0" encoding="UTF-8"?><svg xmlns="http://www.w3.org/2000/svg" viewBox="0 0 451.31 451.31"><defs><style>.d{fill:#fff;stroke:#000;stroke-miterlimit:10;stroke-width:17px;}</style></defs><g id="a"/><g id="b"><g id="c"><g><rect class="d" x="74.59" y="74.59" width="302.13" height="302.13" transform="translate(225.66 -93.47) rotate(45)"/><g><path d="M245.55,286.66c-.76,.05-1.25,.1-1.75,.1-9.29,0-18.58-.02-27.88,.03-1.39,0-1.82-.38-1.82-1.79,.04-32.6,.03-65.2,.03-97.8,0-.5,.06-.99,.11-1.59h30.03v13.41l.44,.13c.29-.36,.61-.7,.85-1.08,5.46-8.62,13.5-13.2,23.41-14.63,7.17-1.03,14.27-.39,21.2,1.83,9.74,3.14,15.66,9.98,18.8,19.49,2.34,7.08,3.15,14.42,3.2,21.81,.13,19.54,.08,39.08,.14,58.61,0,1.3-.45,1.61-1.67,1.6-9.35-.04-18.7-.05-28.04,0-1.47,0-1.75-.53-1.75-1.86,.04-16.72,.1-33.45-.03-50.17-.03-4.03-.43-8.11-1.22-12.06-1.57-7.82-6.29-11.61-14.29-11.99-5.31-.25-10.26,.76-14.09,4.77-3.21,3.35-4.61,7.58-5.09,12.09-.36,3.41-.54,6.85-.55,10.28-.06,15.65-.02,31.31-.03,46.96,0,.55,0,1.11,0,1.85Z"/><path d="M162.95,286.68v-101.04h31.19v101.04h-31.19Z"/><path d="M178.56,171.54c-10.03,.03-18.16-8.03-18.23-18.06-.07-10.11,8.04-18.29,18.15-18.3,10.12-.02,18.24,8.11,18.21,18.23-.03,10.05-8.08,18.11-18.14,18.13Z"/></g></g></g></g></svg>